<?xml version="1.0" encoding="UTF-8" standalone="no"?>
<!DOCTYPE svg PUBLIC "-//W3C//DTD SVG 1.1//EN" "http://www.w3.org/Graphics/SVG/1.1/DTD/svg11.dtd">
<svg version="1.1" xmlns="http://www.w3.org/2000/svg" xmlns:xlink="http://www.w3.org/1999/xlink" preserveAspectRatio="xMidYMid meet" viewBox="0 0 500 500" width="500" height="500"><defs><path d="M479.36 0.9C491.56 0.9 501.45 10.79 501.45 22.99C501.45 118.39 501.45 382.51 501.45 477.91C501.45 490.11 491.56 500 479.36 500C383.77 500 119.09 500 23.5 500C11.3 500 1.41 490.11 1.41 477.91C1.41 382.51 1.41 118.39 1.41 22.99C1.41 10.79 11.3 0.9 23.5 0.9C119.09 0.9 383.77 0.9 479.36 0.9Z" id="acU5B4SH8"></path><path d="" id="f4wleGBMB"></path><path d="M114.32 200.77C93.02 254.74 89.47 300.9 103.67 339.24C124.97 396.76 139.89 405.28 184.62 413.8C229.36 422.32 265.57 356.28 276.22 320.07C283.33 295.93 280.49 260.42 267.7 213.55C335.87 206.45 371.38 222.79 374.22 262.55C377.06 302.32 361.44 321.49 327.35 320.07C337.29 330.01 350.79 343.5 367.83 360.55C384.87 377.59 396.94 382.56 404.04 375.46C419.66 381.14 416.82 388.95 395.52 398.89C374.22 408.83 345.1 386.11 308.18 330.72C286.88 381.85 267.7 414.51 250.66 428.72C233.62 442.92 214.45 450.02 193.14 450.02C112.19 444.34 69.59 401.02 65.32 320.07C61.06 239.12 83.79 161.01 133.49 85.74L159.06 111.3L114.32 200.77Z" id="a11zUTJlIz"></path><path d="" id="b18IBh2DGr"></path><path d="M209.66 205.61L314.05 126.79L417.7 205.61L417.7 245.02L314.05 160.88L209.66 245.02L209.66 205.61Z" id="cnPy6CADu"></path><path d="" id="a1ekK1EHug"></path><path d="M404.91 363.62L392.13 382.79L381.48 404.09L400.65 416.87L417.7 401.96L415.56 378.53" id="a2xe73qSi"></path><path d="" id="g7ZplSViA"></path><path d="" id="gicdUq24t"></path><path d="M35.88 54.26L200.85 54.26L200.85 467.25L35.88 467.25L35.88 54.26Z" id="dfvB1ThgS"></path><path d="" id="a2NhvdVJZe"></path><path d="" id="fnMcldBQE"></path><path d="" id="g3SsAnw49c"></path><path d="M186.16 88.64L186.16 97.12L186.16 88.64L185.59 96.55L185.03 88.08L183.33 96.55L186.16 89.21L190.68 95.99L186.16 89.21L183.33 96.55L183.33 88.64L182.77 96.55" id="bvlVRmoeL"></path><path d="M394.07 375.08L395.2 382.99L395.2 374.52L397.46 365.48" id="fWP1uPZ1t"></path><path d="M344.67 268.61C346.02 284.06 332.46 291.95 303.99 292.3L303.99 244.2C329.77 245.03 343.33 253.17 344.67 268.61Z" id="d1BWAncUmy"></path><path d="M209.66 414.06C78.78 415.63 61.02 323.51 156.39 137.68C133.86 128.23 123.12 122.46 124.17 120.36C18.13 343.45 46.63 452.9 209.66 448.7C208.79 425.6 208.79 414.06 209.66 414.06Z" id="a1dHw7V6NP"></path><path d="M211.92 449.16L209.92 449.41L207.79 449.66L205.67 449.91L203.17 449.91L200.92 449.91L198.92 450.16L196.17 450.53L194.04 450.66L191.92 450.78L189.92 450.78L187.92 450.78L184.67 450.78L182.29 450.66L179.67 450.41L177.29 450.28" id="e6EvYVmAQ"></path></defs><g><g><g><use xlink:href="#acU5B4SH8" opacity="1" fill="#af6a58" fill-opacity="1"></use><g><use xlink:href="#acU5B4SH8" opacity="1" fill-opacity="0" stroke="#e2a57a" stroke-width="1" stroke-opacity="1"></use></g></g><g><g><use xlink:href="#f4wleGBMB" opacity="1" fill-opacity="0" stroke="#000000" stroke-width="1" stroke-opacity="1"></use></g></g><g><use xlink:href="#a11zUTJlIz" opacity="1" fill="#ffffff" fill-opacity="1"></use><g><use xlink:href="#a11zUTJlIz" opacity="1" fill-opacity="0" stroke="#ffffff" stroke-width="1" stroke-opacity="1"></use></g></g><g><g><use xlink:href="#b18IBh2DGr" opacity="1" fill-opacity="0" stroke="#aa6464" stroke-width="1" stroke-opacity="1"></use></g></g><g><use xlink:href="#cnPy6CADu" opacity="1" fill="#ffffff" fill-opacity="1"></use><g><use xlink:href="#cnPy6CADu" opacity="1" fill-opacity="0" stroke="#ffffff" stroke-width="1" stroke-opacity="1"></use></g></g><g><g><use xlink:href="#a1ekK1EHug" opacity="1" fill-opacity="0" stroke="#9f4747" stroke-width="1" stroke-opacity="1"></use></g></g><g><use xlink:href="#a2xe73qSi" opacity="1" fill="#af6a58" fill-opacity="1"></use><g><use xlink:href="#a2xe73qSi" opacity="1" fill-opacity="0" stroke="#af6a58" stroke-width="1" stroke-opacity="1"></use></g></g><g><g><use xlink:href="#g7ZplSViA" opacity="1" fill-opacity="0" stroke="#000000" stroke-width="2" stroke-opacity="1"></use></g></g><g><g><use xlink:href="#gicdUq24t" opacity="1" fill-opacity="0" stroke="#000000" stroke-width="2" stroke-opacity="1"></use></g></g><g><use xlink:href="#dfvB1ThgS" opacity="1" fill="#af6a58" fill-opacity="1"></use></g><g><g><use xlink:href="#a2NhvdVJZe" opacity="1" fill-opacity="0" stroke="#2e1010" stroke-width="2" stroke-opacity="1"></use></g></g><g><g><use xlink:href="#fnMcldBQE" opacity="1" fill-opacity="0" stroke="#000000" stroke-width="1" stroke-opacity="1"></use></g></g><g><g><use xlink:href="#g3SsAnw49c" opacity="1" fill-opacity="0" stroke="#4d2828" stroke-width="1" stroke-opacity="1"></use></g></g><g><g><use xlink:href="#bvlVRmoeL" opacity="1" fill-opacity="0" stroke="#af6a58" stroke-width="1" stroke-opacity="1"></use></g></g><g><g><use xlink:href="#fWP1uPZ1t" opacity="1" fill-opacity="0" stroke="#af6a58" stroke-width="1" stroke-opacity="1"></use></g></g><g><use xlink:href="#d1BWAncUmy" opacity="1" fill="#af6a58" fill-opacity="1"></use><g><use xlink:href="#d1BWAncUmy" opacity="1" fill-opacity="0" stroke="#af6a58" stroke-width="1" stroke-opacity="1"></use></g></g><g><use xlink:href="#a1dHw7V6NP" opacity="1" fill="#ffffff" fill-opacity="1"></use><g><use xlink:href="#a1dHw7V6NP" opacity="1" fill-opacity="0" stroke="#ffffff" stroke-width="2" stroke-opacity="1"></use></g></g><g><g><use xlink:href="#e6EvYVmAQ" opacity="1" fill-opacity="0" stroke="#af6a58" stroke-width="1" stroke-opacity="1"></use></g></g></g></g></svg>